<?xml version="1.0" standalone="no"?>
<!DOCTYPE svg PUBLIC "-//W3C//DTD SVG 20010904//EN"
 "http://www.w3.org/TR/2001/REC-SVG-20010904/DTD/svg10.dtd">
<svg version="1.0" xmlns="http://www.w3.org/2000/svg"
 width="256.000000pt" height="256.000000pt" viewBox="0 0 256.000000 256.000000"
 preserveAspectRatio="xMidYMid meet">
<metadata>
Created by potrace 1.11, written by Peter Selinger 2001-2013
</metadata>
<g transform="translate(0.000000,256.000000) scale(0.100000,-0.100000)"
fill="#000000" stroke="none">
<path d="M1109 2549 c-363 -53 -675 -247 -890 -554 -88 -125 -174 -340 -203
-510 -20 -115 -13 -355 12 -470 113 -506 503 -890 1004 -991 93 -18 339 -27
408 -14 25 5 65 11 90 15 63 9 236 68 312 106 70 35 209 124 248 158 247 219
378 437 442 731 26 121 32 350 12 465 -83 469 -400 846 -844 1003 -47 16 -110
35 -140 41 -30 6 -68 13 -85 17 -49 10 -306 12 -366 3z m405 -174 c225 -54
401 -151 556 -305 222 -223 332 -496 325 -809 -2 -75 -6 -149 -10 -166 -4 -16
-8 -34 -9 -40 -2 -5 -6 -28 -11 -50 -33 -165 -152 -373 -295 -515 -173 -173
-388 -280 -635 -319 -85 -13 -297 -6 -382 13 -389 85 -696 355 -829 728 -21
60 -31 97 -49 183 -14 69 -14 282 0 365 51 291 208 546 445 724 123 93 340
182 489 202 25 3 48 8 50 10 12 11 293 -6 355 -21z"/>
<path d="M1361 1791 c-11 -11 -29 -50 -40 -88 -11 -37 -56 -192 -101 -343 -44
-151 -96 -328 -115 -392 -19 -64 -35 -130 -35 -147 0 -40 34 -71 77 -71 58 0
64 11 142 275 11 39 57 194 102 345 45 151 86 301 92 332 10 54 9 59 -13 83
-29 31 -81 34 -109 6z"/>
<path d="M566 1506 c-97 -97 -181 -188 -186 -201 -6 -16 -6 -34 0 -50 10 -26
325 -346 359 -364 50 -27 111 11 111 70 0 28 -18 51 -142 176 l-142 143 142
143 c130 130 142 145 142 178 0 43 -23 68 -72 75 -34 6 -39 2 -212 -170z"/>
<path d="M1736 1659 c-20 -15 -26 -29 -26 -57 0 -34 11 -48 142 -179 l142
-143 -142 -143 c-124 -125 -142 -148 -142 -176 0 -59 61 -97 111 -70 35 18
349 338 359 365 6 15 8 35 4 46 -6 21 -311 331 -353 360 -34 23 -63 23 -95 -3z"/>
</g>
</svg>
